<svg width="872" height="872" viewBox="0 0 872 872" fill="none" xmlns="http://www.w3.org/2000/svg">
<circle cx="436" cy="436" r="436" fill="#F4F4F4"/>
<path fill-rule="evenodd" clip-rule="evenodd" d="M430 362.108C446.032 358.47 458 344.133 458 327C458 307.118 441.882 291 422 291C402.118 291 386 307.118 386 327C386 344.133 397.968 358.47 414 362.108V682H430V362.108Z" fill="#13C6FF" fill-opacity="0.65"/>
<circle cx="422" cy="327" r="36" fill="#13C6FF"/>
<path fill-rule="evenodd" clip-rule="evenodd" d="M264 351.574V560.5V683.5H360.628C455.321 683.5 510.022 675.614 563.349 633.421C624.151 586.263 654 526.199 654 430.891C654 346.504 636.544 293.661 594.182 247C553.141 202.25 507.606 182.859 435.179 178.489L379.228 235.063H399.812C529.392 235.063 533.962 255.948 533.962 386.5C533.962 512.676 522.732 512.627 397.616 512.079C388.846 512.041 379.518 512 369.594 512H316.299V430.891V298.693L264 351.574Z" fill="#494949"/>
<path d="M264 178V329L415 178H264Z" fill="#13C6FF" fill-opacity="0.65"/>
</svg>
